<svg width="25" height="25" viewBox="0 0 25 25" fill="none" xmlns="http://www.w3.org/2000/svg">
<path d="M18.75 12.5C18.75 12.2237 18.6403 11.9588 18.4449 11.7634C18.2496 11.5681 17.9846 11.4583 17.7083 11.4583L7.29167 11.4583C7.0154 11.4583 6.75045 11.5681 6.5551 11.7634C6.35975 11.9588 6.25 12.2237 6.25 12.5C6.25 12.7763 6.35975 13.0412 6.5551 13.2366C6.75045 13.4319 7.0154 13.5417 7.29167 13.5417L17.7083 13.5417C17.9846 13.5417 18.2496 13.4319 18.4449 13.2366C18.6403 13.0412 18.75 12.7763 18.75 12.5ZM12.5 7.29168C12.5 7.01541 12.3903 6.75046 12.1949 6.55511C11.9996 6.35976 11.7346 6.25001 11.4583 6.25001H7.29167C7.0154 6.25001 6.75045 6.35976 6.5551 6.55511C6.35975 6.75046 6.25 7.01541 6.25 7.29168C6.25 7.56794 6.35975 7.8329 6.5551 8.02825C6.75045 8.2236 7.0154 8.33334 7.29167 8.33334H11.4583C11.7346 8.33334 11.9996 8.2236 12.1949 8.02825C12.3903 7.8329 12.5 7.56794 12.5 7.29168ZM14.5833 17.7083C14.5833 17.4321 14.4736 17.1671 14.2782 16.9718C14.0829 16.7764 13.8179 16.6667 13.5417 16.6667H7.29167C7.0154 16.6667 6.75045 16.7764 6.5551 16.9718C6.35975 17.1671 6.25 17.4321 6.25 17.7083C6.25 17.9846 6.35975 18.2496 6.5551 18.4449C6.75045 18.6403 7.0154 18.75 7.29167 18.75H13.5417C13.8179 18.75 14.0829 18.6403 14.2782 18.4449C14.4736 18.2496 14.5833 17.9846 14.5833 17.7083ZM22.9167 19.7917V5.20834C22.9167 4.37954 22.5874 3.58469 22.0014 2.99863C21.4153 2.41258 20.6205 2.08334 19.7917 2.08334L5.20834 2.08334C4.37953 2.08334 3.58468 2.41258 2.99863 2.99863C2.41257 3.58469 2.08334 4.37954 2.08334 5.20834V19.7917C2.08334 20.6205 2.41257 21.4153 2.99863 22.0014C3.58468 22.5874 4.37953 22.9167 5.20834 22.9167H19.7917C20.6205 22.9167 21.4153 22.5874 22.0014 22.0014C22.5874 21.4153 22.9167 20.6205 22.9167 19.7917ZM5.20834 20.8333C4.93207 20.8333 4.66712 20.7236 4.47177 20.5282C4.27641 20.3329 4.16667 20.0679 4.16667 19.7917V5.20834C4.16667 4.93208 4.27641 4.66712 4.47177 4.47177C4.66712 4.27642 4.93207 4.16668 5.20834 4.16668L19.7917 4.16668C20.0679 4.16668 20.3329 4.27642 20.5282 4.47177C20.7236 4.66712 20.8333 4.93208 20.8333 5.20834V19.7917C20.8333 20.0679 20.7236 20.3329 20.5282 20.5282C20.3329 20.7236 20.0679 20.8333 19.7917 20.8333H5.20834Z" fill="#434343"/>
</svg>
