<svg width="25" height="25" viewBox="0 0 25 25" fill="none" xmlns="http://www.w3.org/2000/svg">
<path d="M17.7083 2.08334H5.20833C4.93206 2.08334 4.66711 2.19309 4.47176 2.38844C4.27641 2.58379 4.16666 2.84874 4.16666 3.12501V19.7917C4.16666 20.0679 4.27641 20.3329 4.47176 20.5282C4.66711 20.7236 4.93206 20.8333 5.20833 20.8333H6.25V21.875C6.25 22.1513 6.35974 22.4162 6.55509 22.6116C6.75045 22.8069 7.0154 22.9167 7.29166 22.9167C7.56793 22.9167 7.83288 22.8069 8.02823 22.6116C8.22358 22.4162 8.33333 22.1513 8.33333 21.875V20.8333H17.7083C18.5371 20.8333 19.332 20.5041 19.918 19.9181C20.5041 19.332 20.8333 18.5371 20.8333 17.7083V5.20834C20.8333 4.37954 20.5041 3.58469 19.918 2.99863C19.332 2.41258 18.5371 2.08334 17.7083 2.08334ZM14.5833 18.75H6.25V4.16668H14.5833V18.75ZM18.75 17.7083C18.75 17.9846 18.6403 18.2496 18.4449 18.4449C18.2496 18.6403 17.9846 18.75 17.7083 18.75H16.6667V4.16668H17.7083C17.9846 4.16668 18.2496 4.27642 18.4449 4.47177C18.6403 4.66712 18.75 4.93208 18.75 5.20834V17.7083Z" fill="#434343"/>
</svg>
