<svg width="25" height="25" viewBox="0 0 25 25" fill="none" xmlns="http://www.w3.org/2000/svg">
<path d="M22.2083 9.94793L20.2396 9.29168L21.1667 7.43751C21.2606 7.24344 21.2921 7.02498 21.2566 6.81228C21.2212 6.59958 21.1206 6.40312 20.9687 6.25001L18.75 4.03126C18.5961 3.87719 18.3977 3.77523 18.1829 3.73973C17.968 3.70423 17.7474 3.73697 17.5521 3.83335L15.6979 4.76043L15.0417 2.79168C14.9724 2.58646 14.8408 2.40796 14.6653 2.281C14.4898 2.15405 14.2791 2.08496 14.0625 2.08335H10.9375C10.7191 2.08278 10.5061 2.15087 10.3285 2.27797C10.1509 2.40508 10.0178 2.58478 9.94792 2.79168L9.29167 4.76043L7.4375 3.83335C7.24342 3.73937 7.02496 3.70793 6.81226 3.74338C6.59956 3.77883 6.4031 3.87942 6.25 4.03126L4.03125 6.25001C3.87717 6.40394 3.77521 6.60228 3.73971 6.81715C3.70421 7.03203 3.73695 7.25263 3.83333 7.44793L4.76042 9.3021L2.79167 9.95835C2.58645 10.0277 2.40794 10.1592 2.28099 10.3347C2.15403 10.5102 2.08494 10.7209 2.08333 10.9375V14.0625C2.08277 14.2809 2.15085 14.4939 2.27796 14.6715C2.40507 14.8491 2.58477 14.9822 2.79167 15.0521L4.76042 15.7083L3.83333 17.5625C3.73935 17.7566 3.70792 17.975 3.74337 18.1877C3.77882 18.4004 3.8794 18.5969 4.03125 18.75L6.25 20.9688C6.40392 21.1228 6.60226 21.2248 6.81714 21.2603C7.03201 21.2958 7.25261 21.2631 7.44792 21.1667L9.30208 20.2396L9.95833 22.2083C10.0282 22.4152 10.1614 22.5949 10.3389 22.7221C10.5165 22.8492 10.7295 22.9172 10.9479 22.9167H14.0729C14.2913 22.9172 14.5043 22.8492 14.6819 22.7221C14.8595 22.5949 14.9926 22.4152 15.0625 22.2083L15.7187 20.2396L17.5729 21.1667C17.7658 21.2583 17.9821 21.2884 18.1926 21.253C18.4031 21.2176 18.5977 21.1184 18.75 20.9688L20.9687 18.75C21.1228 18.5961 21.2248 18.3977 21.2603 18.1829C21.2958 17.968 21.263 17.7474 21.1667 17.5521L20.2396 15.6979L22.2083 15.0417C22.4135 14.9724 22.5921 14.8408 22.719 14.6653C22.846 14.4898 22.9151 14.2791 22.9167 14.0625V10.9375C22.9172 10.7191 22.8491 10.5061 22.722 10.3285C22.5949 10.1509 22.4152 10.0178 22.2083 9.94793ZM20.8333 13.3125L19.5833 13.7292C19.2959 13.8224 19.0322 13.9771 18.8105 14.1824C18.5888 14.3877 18.4144 14.6389 18.2994 14.9183C18.1845 15.1978 18.1317 15.4989 18.1447 15.8008C18.1578 16.1027 18.2364 16.3982 18.375 16.6667L18.9687 17.8542L17.8229 19L16.6667 18.375C16.3995 18.2419 16.1069 18.1678 15.8087 18.1576C15.5104 18.1474 15.2134 18.2015 14.9378 18.316C14.6623 18.4306 14.4145 18.6031 14.2114 18.8217C14.0082 19.0404 13.8544 19.3001 13.7604 19.5833L13.3437 20.8333H11.6875L11.2708 19.5833C11.1776 19.2959 11.0229 19.0322 10.8176 18.8105C10.6123 18.5888 10.3612 18.4144 10.0817 18.2995C9.80222 18.1845 9.50109 18.1317 9.19919 18.1448C8.89729 18.1578 8.60184 18.2364 8.33333 18.375L7.14583 18.9688L6 17.8229L6.625 16.6667C6.76364 16.3982 6.84221 16.1027 6.85525 15.8008C6.8683 15.4989 6.81552 15.1978 6.70056 14.9183C6.5856 14.6389 6.41123 14.3877 6.18952 14.1824C5.96782 13.9771 5.70411 13.8224 5.41666 13.7292L4.16667 13.3125V11.6875L5.41666 11.2708C5.70411 11.1776 5.96782 11.023 6.18952 10.8176C6.41123 10.6123 6.5856 10.3612 6.70056 10.0817C6.81552 9.80224 6.8683 9.50111 6.85525 9.19921C6.84221 8.8973 6.76364 8.60185 6.625 8.33335L6.03125 7.1771L7.17708 6.03126L8.33333 6.62501C8.60184 6.76365 8.89729 6.84222 9.19919 6.85527C9.50109 6.86832 9.80222 6.81553 10.0817 6.70057C10.3612 6.58562 10.6123 6.41124 10.8176 6.18954C11.0229 5.96784 11.1776 5.70412 11.2708 5.41668L11.6875 4.16668H13.3125L13.7292 5.41668C13.8224 5.70412 13.9771 5.96784 14.1824 6.18954C14.3877 6.41124 14.6388 6.58562 14.9183 6.70057C15.1978 6.81553 15.4989 6.86832 15.8008 6.85527C16.1027 6.84222 16.3982 6.76365 16.6667 6.62501L17.8542 6.03126L19 7.1771L18.375 8.33335C18.2419 8.60048 18.1678 8.89308 18.1576 9.19136C18.1474 9.48963 18.2015 9.78661 18.316 10.0622C18.4306 10.3378 18.6031 10.5855 18.8217 10.7886C19.0403 10.9918 19.3001 11.1456 19.5833 11.2396L20.8333 11.6563V13.3125ZM12.5 8.33335C11.6759 8.33335 10.8703 8.57772 10.1851 9.03556C9.49992 9.4934 8.96586 10.1441 8.6505 10.9055C8.33513 11.6669 8.25262 12.5046 8.41339 13.3129C8.57416 14.1211 8.971 14.8636 9.55372 15.4463C10.1364 16.029 10.8789 16.4258 11.6871 16.5866C12.4954 16.7474 13.3332 16.6649 14.0945 16.3495C14.8559 16.0341 15.5066 15.5001 15.9645 14.8149C16.4223 14.1297 16.6667 13.3241 16.6667 12.5C16.6667 11.3949 16.2277 10.3351 15.4463 9.55373C14.6649 8.77233 13.6051 8.33335 12.5 8.33335ZM12.5 14.5833C12.088 14.5833 11.6852 14.4612 11.3426 14.2322C11 14.0033 10.7329 13.6779 10.5752 13.2973C10.4176 12.9166 10.3763 12.4977 10.4567 12.0936C10.5371 11.6894 10.7355 11.3182 11.0269 11.0269C11.3182 10.7355 11.6894 10.5371 12.0936 10.4567C12.4977 10.3763 12.9166 10.4176 13.2973 10.5753C13.6779 10.7329 14.0033 11 14.2322 11.3426C14.4611 11.6852 14.5833 12.088 14.5833 12.5C14.5833 13.0525 14.3638 13.5825 13.9731 13.9732C13.5824 14.3639 13.0525 14.5833 12.5 14.5833Z" fill="#434343"/>
</svg>
